<?xml version='1.0' encoding='utf-8'?>
<svg xmlns="http://www.w3.org/2000/svg" width="56" height="56" viewBox="0 0 255 255" fill="none">
<circle cx="127.5" cy="127.5" r="125.5" stroke="#C2AFC3" stroke-width="4" />
<path d="M38 212.5C15.5 188 8 165.5 5 143.5C44.3393 120.787 88.0031 109.622 115.5 111C124.34 110.538 132.959 110.346 141.317 110.78C153.246 110.826 175.576 112.78 201.402 120.903C222.086 127.092 238.453 135.212 250 143C248.5 156.833 241 189.8 217 213L141.317 110.78C132.959 110.346 124.34 110.538 115.5 111L38 212.5Z" fill="#B39EB5" fill-opacity="0.5" />
<path d="M115.5 110.988L38 212.5C106.5 283 193.5 241.647 217 213L141.5 111C130.933 110.427 125.63 110.38 115.5 110.988Z" fill="#C2AFC3" />
<path d="M50 81C57.732 81 64 87.268 64 95C64 101.702 59.2903 107.303 53 108.677V124H48V108.856C41.2155 107.886 36 102.053 36 95C36 87.268 42.268 81 50 81Z" fill="#C2AFC3" />
<rect x="166" y="60" width="14" height="57" fill="#C2AFC3" />
<rect x="186" y="71" width="14" height="57" fill="#C2AFC3" />
</svg>